<svg xmlns="http://www.w3.org/2000/svg" data-name="Layer 1" width="816.21532" height="621.26001" viewBox="0 0 816.21532 621.26001" xmlns:xlink="http://www.w3.org/1999/xlink"><path d="M518.50083,268.28863h-2.9787V186.71137a52.21743,52.21743,0,0,0-52.21743-52.21743H285.77093a52.21743,52.21743,0,0,0-52.21743,52.21743V683.647a52.21743,52.21743,0,0,0,52.21743,52.21742H463.3047a52.21743,52.21743,0,0,0,52.21743-52.21742V346.71073h2.9787Z" transform="translate(-191.89234 -139.37)" fill="#3f3d56"/><path d="M464.73336,147.04921H446.4568a18.65666,18.65666,0,0,1-17.27713,25.77486H322.22873a18.65666,18.65666,0,0,1-17.27713-25.77486H287.3393a39.06032,39.06032,0,0,0-39.06031,39.06031V683.647a39.06033,39.06033,0,0,0,39.06031,39.06032H464.73336a39.06033,39.06033,0,0,0,39.06032-39.06032V186.10952A39.06032,39.06032,0,0,0,464.73336,147.04921Z" transform="translate(-191.89234 -139.37)" fill="#fff"/><circle cx="182.44487" cy="175.60978" r="9.89445" fill="#e6e6e6"/><path d="M518.73783,440.11527a9.89446,9.89446,0,0,1-9.89446-9.89446V398.86106a9.89446,9.89446,0,0,1,19.78892,0v31.35975A9.89446,9.89446,0,0,1,518.73783,440.11527Z" transform="translate(-191.89234 -139.37)" fill="#3f51b5"/><path d="M518.73783,577.85249a9.89446,9.89446,0,0,1-9.89446-9.89446V536.59828a9.89446,9.89446,0,1,1,19.78892,0V567.958A9.89446,9.89446,0,0,1,518.73783,577.85249Z" transform="translate(-191.89234 -139.37)" fill="#3f51b5"/><path d="M518.73783,520.28984a9.89446,9.89446,0,0,1-9.89446-9.89446V479.03563a9.89446,9.89446,0,1,1,19.78892,0v31.35975A9.89446,9.89446,0,0,1,518.73783,520.28984Z" transform="translate(-191.89234 -139.37)" fill="#e6e6e6"/><path d="M518.73783,658.02705a9.89446,9.89446,0,0,1-9.89446-9.89446V616.77284a9.89446,9.89446,0,1,1,19.78892,0v31.35975A9.89446,9.89446,0,0,1,518.73783,658.02705Z" transform="translate(-191.89234 -139.37)" fill="#e6e6e6"/><path d="M341.03783,452.08984H298.67808a9.89446,9.89446,0,1,1,0-19.78892h42.35975a9.89446,9.89446,0,0,1,0,19.78892Z" transform="translate(-191.89234 -139.37)" fill="#3f51b5"/><path d="M453.83265,452.08984H411.4729a9.89446,9.89446,0,1,1,0-19.78892h42.35975a9.89446,9.89446,0,1,1,0,19.78892Z" transform="translate(-191.89234 -139.37)" fill="#3f51b5"/><path d="M453.83265,520.28984H298.67808a9.89446,9.89446,0,1,1,0-19.78892H453.83265a9.89446,9.89446,0,1,1,0,19.78892Z" transform="translate(-191.89234 -139.37)" fill="#e6e6e6"/><path d="M453.83265,588.48984H298.67808a9.89446,9.89446,0,1,1,0-19.78892H453.83265a9.89446,9.89446,0,1,1,0,19.78892Z" transform="translate(-191.89234 -139.37)" fill="#e6e6e6"/><path d="M453.83265,656.68984H298.67808a9.89446,9.89446,0,1,1,0-19.78892H453.83265a9.89446,9.89446,0,1,1,0,19.78892Z" transform="translate(-191.89234 -139.37)" fill="#e6e6e6"/><path d="M503.73783,383.94527a9.89446,9.89446,0,0,1-9.89446-9.89446V342.69106a9.89446,9.89446,0,0,1,19.78892,0v31.35975A9.89446,9.89446,0,0,1,503.73783,383.94527Z" transform="translate(-191.89234 -139.37)" fill="#e6e6e6"/><path d="M614.21925,760.63h-381a1,1,0,0,1,0-2h381a1,1,0,0,1,0,2Z" transform="translate(-191.89234 -139.37)" fill="#cbcbcb"/><path d="M470.23783,326.94527H282.27808a9.89446,9.89446,0,0,1,0-19.78892H470.23783a9.89446,9.89446,0,1,1,0,19.78892Z" transform="translate(-191.89234 -139.37)" fill="#3f51b5"/></svg>
